<?xml version="1.0" encoding="utf-8"?>
<!-- Generator: Adobe Illustrator 27.5.0, SVG Export Plug-In . SVG Version: 6.00 Build 0)  -->
<svg version="1.1" id="Layer_1" xmlns="http://www.w3.org/2000/svg" xmlns:xlink="http://www.w3.org/1999/xlink" x="0px" y="0px"
	 viewBox="0 0 40 40" style="enable-background:new 0 0 40 40;" xml:space="preserve">
<style type="text/css">
	.st0{fill:#1F1F1F;}
	.st1{fill:#FFFFFF;}
</style>
<rect class="st0" width="40" height="40"/>
<path class="st1" d="M25.9,19.1c-0.1-0.1-0.2-0.1-0.3-0.1c-0.2-3.5-2.1-5.5-5.3-5.5c0,0,0,0,0,0c-1.9,0-3.5,0.8-4.5,2.3l1.8,1.2
	c0.7-1.1,1.9-1.4,2.7-1.4c0,0,0,0,0,0c1.1,0,1.9,0.3,2.4,0.9c0.4,0.4,0.6,1,0.8,1.8c-0.9-0.2-2-0.2-3-0.1c-3.1,0.2-5,2-4.9,4.4
	c0.1,1.3,0.7,2.3,1.8,3c0.9,0.6,2.1,0.9,3.3,0.8c1.6-0.1,2.8-0.7,3.7-1.8c0.7-0.8,1.1-1.9,1.3-3.3c0.8,0.5,1.3,1.1,1.6,1.8
	c0.5,1.2,0.6,3.3-1.1,4.9c-1.5,1.5-3.2,2.1-5.8,2.1c-2.9,0-5.1-1-6.6-2.8c-1.3-1.7-2-4.2-2.1-7.3c0-3.2,0.7-5.6,2.1-7.3
	c1.4-1.8,3.6-2.8,6.6-2.8c2.9,0,5.2,1,6.7,2.8c0.7,0.9,1.3,2,1.6,3.4l2.1-0.6c-0.4-1.6-1.1-3-2.1-4.2c-1.9-2.4-4.7-3.6-8.3-3.6h0
	c-3.6,0-6.4,1.2-8.2,3.6c-1.7,2.1-2.5,5-2.5,8.7v0v0c0,3.7,0.9,6.6,2.5,8.7c1.9,2.4,4.6,3.6,8.2,3.6h0c3.2,0,5.5-0.9,7.3-2.7
	c2.4-2.4,2.4-5.5,1.6-7.3C28.5,20.9,27.4,19.8,25.9,19.1z M20.4,24.3c-1.3,0.1-2.7-0.5-2.8-1.8c-0.1-1,0.7-2,2.9-2.1
	c0.3,0,0.5,0,0.7,0c0.8,0,1.5,0.1,2.2,0.2C23.2,23.7,21.7,24.2,20.4,24.3z"/>
</svg>
